<svg width="24" height="15" viewBox="0 0 24 15" fill="none" xmlns="http://www.w3.org/2000/svg">
<g clip-path="url(#clip0_1_1983)">
<path opacity="0.5" fill-rule="evenodd" clip-rule="evenodd" d="M10.1027 13.2213C10.1027 13.3989 9.97782 13.5427 9.82383 13.5427C9.66985 13.5427 9.54492 13.3989 9.54492 13.2213V2.86415C9.54492 2.6867 9.66985 2.54272 9.82383 2.54272C9.97782 2.54272 10.1027 2.6867 10.1027 2.86415V8.60433H22.8707V7.14987C22.8707 6.97241 22.9956 6.82844 23.1496 6.82844C23.3036 6.82844 23.4285 6.97241 23.4285 7.14987V13.2213C23.4285 13.3989 23.3036 13.5427 23.1496 13.5427C22.9956 13.5427 22.8707 13.3989 22.8707 13.2213V11.0329H10.1027V13.2213ZM22.8707 10.39V9.24719H10.1027V10.39H22.8707Z" fill="#222222"/>
<path opacity="0.5" fill-rule="evenodd" clip-rule="evenodd" d="M10.9302 6.42578C10.9302 5.45926 11.61 4.67578 12.4487 4.67578C13.287 4.6769 13.9662 5.45982 13.9672 6.42578C13.9672 7.3923 13.2874 8.17578 12.4487 8.17578C11.61 8.17578 10.9302 7.3923 10.9302 6.42578ZM11.488 6.42578C11.488 7.03728 11.9181 7.53292 12.4487 7.53292C12.979 7.53225 13.4088 7.03705 13.4094 6.42578C13.4094 5.8144 12.9792 5.31864 12.4487 5.31864C11.9181 5.31864 11.488 5.8144 11.488 6.42578Z" fill="#222222"/>
<path opacity="0.5" fill-rule="evenodd" clip-rule="evenodd" d="M21.868 8.17575H14.7402C14.5862 8.17575 14.4613 8.032 14.4613 7.85432V4.64003C14.4613 4.46258 14.5862 4.3186 14.7402 4.3186H19.0788C20.7725 4.32084 22.1451 5.90264 22.1469 7.85432C22.1469 8.032 22.0221 8.17575 21.868 8.17575ZM19.0788 4.96146H15.0191V7.53289H21.5735C21.43 6.06972 20.3567 4.96347 19.0788 4.96146Z" fill="#222222"/>
<path d="M6.36 11.232V12H0.468V11.388L3.96 7.968C4.4 7.536 4.696 7.164 4.848 6.852C5.008 6.532 5.088 6.212 5.088 5.892C5.088 5.396 4.916 5.012 4.572 4.74C4.236 4.46 3.752 4.32 3.12 4.32C2.136 4.32 1.372 4.632 0.828 5.256L0.216 4.728C0.544 4.344 0.96 4.048 1.464 3.84C1.976 3.632 2.552 3.528 3.192 3.528C4.048 3.528 4.724 3.732 5.22 4.14C5.724 4.54 5.976 5.092 5.976 5.796C5.976 6.228 5.88 6.644 5.688 7.044C5.496 7.444 5.132 7.904 4.596 8.424L1.74 11.232H6.36Z" fill="#222222" fill-opacity="0.5"/>
</g>
<defs>
<clipPath id="clip0_1_1983">
<rect width="24" height="15" fill="white"/>
</clipPath>
</defs>
</svg>
