<svg width="33" height="33" viewBox="0 0 33 33" fill="none" xmlns="http://www.w3.org/2000/svg">
<g filter="url(#filter0_d_1_2020)">
<ellipse cx="16.4127" cy="15.4096" rx="10.4127" ry="10.4096" fill="#F4F4F4"/>
</g>
<path fill-rule="evenodd" clip-rule="evenodd" d="M19.3082 10.2048C18.022 10.2048 16.9126 10.9725 16.4124 12.073C15.9128 10.9725 14.8032 10.2048 13.5175 10.2048C11.7643 10.2048 10.3386 11.6307 10.3386 13.383C10.3386 13.7527 10.4021 14.1072 10.5189 14.4376C10.6519 14.8137 10.8534 15.1573 11.1088 15.4535C11.2178 15.5803 11.3361 15.698 11.4638 15.8062L16.3123 20.6209C16.3422 20.6508 16.381 20.6656 16.4203 20.6656C16.4598 20.6656 16.499 20.6508 16.529 20.6209L21.5576 15.6263C21.8831 15.2991 22.1387 14.9028 22.2988 14.4604C22.4203 14.1239 22.4868 13.761 22.4868 13.383C22.4868 11.6307 21.0607 10.2048 19.3082 10.2048Z" stroke="#979797"/>
<defs>
<filter id="filter0_d_1_2020" x="0" y="0" width="32.8254" height="32.8193" filterUnits="userSpaceOnUse" color-interpolation-filters="sRGB">
<feFlood flood-opacity="0" result="BackgroundImageFix"/>
<feColorMatrix in="SourceAlpha" type="matrix" values="0 0 0 0 0 0 0 0 0 0 0 0 0 0 0 0 0 0 127 0" result="hardAlpha"/>
<feOffset dy="1"/>
<feGaussianBlur stdDeviation="3"/>
<feColorMatrix type="matrix" values="0 0 0 0 0.133333 0 0 0 0 0.133333 0 0 0 0 0.133333 0 0 0 0.163762 0"/>
<feBlend mode="normal" in2="BackgroundImageFix" result="effect1_dropShadow_1_2020"/>
<feBlend mode="normal" in="SourceGraphic" in2="effect1_dropShadow_1_2020" result="shape"/>
</filter>
</defs>
</svg>
