<svg width="33" height="33" viewBox="0 0 33 33" fill="none" xmlns="http://www.w3.org/2000/svg">
<g filter="url(#filter0_d_1_2023)">
<ellipse cx="16.4127" cy="15.4096" rx="10.4127" ry="10.4096" fill="#F4F4F4"/>
</g>
<path opacity="0.501674" fill-rule="evenodd" clip-rule="evenodd" d="M17.7827 12.1224C17.7827 11.0682 18.6464 10.2048 19.7009 10.2048C20.7554 10.2048 21.619 11.0682 21.619 12.1224C21.619 13.1766 20.7554 14.04 19.7009 14.04C19.1031 14.04 18.5886 13.7458 18.236 13.3134L14.9505 14.9565C14.9594 14.9919 14.9693 15.0269 14.9791 15.0619C15.0109 15.1747 15.0426 15.2872 15.0426 15.4097C15.0426 15.5321 15.0109 15.6446 14.9791 15.7574C14.9693 15.7924 14.9594 15.8275 14.9505 15.8628L18.236 17.5059C18.5886 17.0735 19.1031 16.7793 19.7009 16.7793C20.7554 16.7793 21.619 17.6427 21.619 18.6969C21.619 19.7511 20.7554 20.6145 19.7009 20.6145C18.6464 20.6145 17.7827 19.7511 17.7827 18.6969C17.7827 18.5745 17.8144 18.4619 17.8461 18.3492C17.856 18.3142 17.8659 18.2791 17.8748 18.2437L14.5892 16.6006C14.2367 17.033 13.7222 17.3272 13.1244 17.3272C12.0699 17.3272 11.2063 16.4638 11.2063 15.4097C11.2063 14.3555 12.0699 13.4921 13.1244 13.4921C13.7222 13.4921 14.2367 13.7863 14.5892 14.2187L17.8748 12.5756C17.8659 12.5402 17.856 12.5052 17.8461 12.4701C17.8144 12.3574 17.7827 12.2448 17.7827 12.1224ZM20.7969 12.1224C20.7969 11.5124 20.3111 11.0266 19.7009 11.0266C19.0907 11.0266 18.6048 11.5124 18.6048 12.1224C18.6048 12.7324 19.0907 13.2182 19.7009 13.2182C20.3111 13.2182 20.7969 12.7324 20.7969 12.1224ZM13.1244 14.3139C13.7346 14.3139 14.2205 14.7996 14.2205 15.4097C14.2205 16.0197 13.7346 16.5054 13.1244 16.5054C12.5142 16.5054 12.0284 16.0197 12.0284 15.4097C12.0284 14.7996 12.5142 14.3139 13.1244 14.3139ZM20.7969 18.6969C20.7969 18.0869 20.3111 17.6012 19.7009 17.6012C19.0907 17.6012 18.6048 18.0869 18.6048 18.6969C18.6048 19.3069 19.0907 19.7927 19.7009 19.7927C20.3111 19.7927 20.7969 19.3069 20.7969 18.6969Z" fill="#222222"/>
<defs>
<filter id="filter0_d_1_2023" x="0" y="0" width="32.8254" height="32.8193" filterUnits="userSpaceOnUse" color-interpolation-filters="sRGB">
<feFlood flood-opacity="0" result="BackgroundImageFix"/>
<feColorMatrix in="SourceAlpha" type="matrix" values="0 0 0 0 0 0 0 0 0 0 0 0 0 0 0 0 0 0 127 0" result="hardAlpha"/>
<feOffset dy="1"/>
<feGaussianBlur stdDeviation="3"/>
<feColorMatrix type="matrix" values="0 0 0 0 0.133333 0 0 0 0 0.133333 0 0 0 0 0.133333 0 0 0 0.163762 0"/>
<feBlend mode="normal" in2="BackgroundImageFix" result="effect1_dropShadow_1_2023"/>
<feBlend mode="normal" in="SourceGraphic" in2="effect1_dropShadow_1_2023" result="shape"/>
</filter>
</defs>
</svg>
